<svg id="visual" viewBox="0 0 900 600" width="900" height="600" xmlns="http://www.w3.org/2000/svg" xmlns:xlink="http://www.w3.org/1999/xlink" version="1.1"><rect x="0" y="0" width="900" height="600" fill="#10304f"></rect><path d="M0 438L12.5 441C25 444 50 450 75 452.8C100 455.7 125 455.3 150 453.7C175 452 200 449 225 450.2C250 451.3 275 456.7 300 456.5C325 456.3 350 450.7 375 445.3C400 440 425 435 450 436.7C475 438.3 500 446.7 525 452.5C550 458.3 575 461.7 600 460C625 458.3 650 451.7 675 451.2C700 450.7 725 456.3 750 459.8C775 463.3 800 464.7 825 460.7C850 456.7 875 447.3 887.5 442.7L900 438L900 601L887.5 601C875 601 850 601 825 601C800 601 775 601 750 601C725 601 700 601 675 601C650 601 625 601 600 601C575 601 550 601 525 601C500 601 475 601 450 601C425 601 400 601 375 601C350 601 325 601 300 601C275 601 250 601 225 601C200 601 175 601 150 601C125 601 100 601 75 601C50 601 25 601 12.5 601L0 601Z" fill="#ff6f61"></path><path d="M0 455L12.5 459.2C25 463.3 50 471.7 75 470.5C100 469.3 125 458.7 150 453.8C175 449 200 450 225 456.5C250 463 275 475 300 478.5C325 482 350 477 375 474C400 471 425 470 450 473.7C475 477.3 500 485.7 525 487.5C550 489.3 575 484.7 600 478.7C625 472.7 650 465.3 675 461.3C700 457.3 725 456.7 750 456.8C775 457 800 458 825 464.3C850 470.7 875 482.3 887.5 488.2L900 494L900 601L887.5 601C875 601 850 601 825 601C800 601 775 601 750 601C725 601 700 601 675 601C650 601 625 601 600 601C575 601 550 601 525 601C500 601 475 601 450 601C425 601 400 601 375 601C350 601 325 601 300 601C275 601 250 601 225 601C200 601 175 601 150 601C125 601 100 601 75 601C50 601 25 601 12.5 601L0 601Z" fill="#ed5f5d"></path><path d="M0 512L12.5 506C25 500 50 488 75 482.5C100 477 125 478 150 484.7C175 491.3 200 503.7 225 504.7C250 505.7 275 495.3 300 496C325 496.7 350 508.3 375 511.7C400 515 425 510 450 502.7C475 495.3 500 485.7 525 488.7C550 491.7 575 507.3 600 512.3C625 517.3 650 511.7 675 510.5C700 509.3 725 512.7 750 510.5C775 508.3 800 500.7 825 501.7C850 502.7 875 512.3 887.5 517.2L900 522L900 601L887.5 601C875 601 850 601 825 601C800 601 775 601 750 601C725 601 700 601 675 601C650 601 625 601 600 601C575 601 550 601 525 601C500 601 475 601 450 601C425 601 400 601 375 601C350 601 325 601 300 601C275 601 250 601 225 601C200 601 175 601 150 601C125 601 100 601 75 601C50 601 25 601 12.5 601L0 601Z" fill="#db4f59"></path><path d="M0 517L12.5 520.3C25 523.7 50 530.3 75 531.5C100 532.7 125 528.3 150 527.5C175 526.7 200 529.3 225 532.7C250 536 275 540 300 541.5C325 543 350 542 375 542.2C400 542.3 425 543.7 450 543.7C475 543.7 500 542.3 525 538.5C550 534.7 575 528.3 600 523C625 517.7 650 513.3 675 516.8C700 520.3 725 531.7 750 533.5C775 535.3 800 527.7 825 526.8C850 526 875 532 887.5 535L900 538L900 601L887.5 601C875 601 850 601 825 601C800 601 775 601 750 601C725 601 700 601 675 601C650 601 625 601 600 601C575 601 550 601 525 601C500 601 475 601 450 601C425 601 400 601 375 601C350 601 325 601 300 601C275 601 250 601 225 601C200 601 175 601 150 601C125 601 100 601 75 601C50 601 25 601 12.5 601L0 601Z" fill="#c83f54"></path><path d="M0 554L12.5 557.2C25 560.3 50 566.7 75 568.8C100 571 125 569 150 564C175 559 200 551 225 552.2C250 553.3 275 563.7 300 568.2C325 572.7 350 571.3 375 567.7C400 564 425 558 450 554.8C475 551.7 500 551.3 525 550.8C550 550.3 575 549.7 600 550.7C625 551.7 650 554.3 675 554.5C700 554.7 725 552.3 750 551.5C775 550.7 800 551.3 825 550.8C850 550.3 875 548.7 887.5 547.8L900 547L900 601L887.5 601C875 601 850 601 825 601C800 601 775 601 750 601C725 601 700 601 675 601C650 601 625 601 600 601C575 601 550 601 525 601C500 601 475 601 450 601C425 601 400 601 375 601C350 601 325 601 300 601C275 601 250 601 225 601C200 601 175 601 150 601C125 601 100 601 75 601C50 601 25 601 12.5 601L0 601Z" fill="#b5304f"></path></svg>